<svg width="239" height="73" viewBox="0 0 239 73" fill="none" xmlns="http://www.w3.org/2000/svg">
<path fill-rule="evenodd" clip-rule="evenodd" d="M17.7645 65.5105C19.7394 65.5105 22.0106 65.0355 24.6176 64.1251C28.4885 62.7793 31.5497 60.9188 34.5516 59.1178L35.3416 58.6032C38.6397 56.5845 41.7799 54.3282 44.7226 51.8147C51.0819 46.8667 55.6046 40.6126 58.3103 33.0125C59.2978 30.1625 60.6802 24.5615 58.9818 19.3167C57.698 15.3584 55.3281 12.2313 51.8522 9.95522C51.4572 9.63855 47.132 6.27396 38.8965 6.27396C31.4114 6.27396 23.1759 9.0448 14.4663 14.5667L14.1898 14.7646L13.3998 15.2792C11.3854 16.5459 9.46969 17.9511 7.65273 19.4948C3.93982 22.9386 -0.227333 28.6584 0.0096616 33.5469C0.0886597 35.5261 1.07614 37.3865 2.6956 38.5542C4.27556 39.7417 6.25051 40.3355 8.20572 40.2563C12.6889 40.2563 17.5867 37.8813 20.9244 35.9219L21.5564 35.5261L23.2944 34.4178L23.8868 34.0219C28.607 30.9344 33.5444 27.748 39.094 25.8875C40.3579 25.4521 41.6614 25.2146 42.9649 25.175C43.5179 25.175 44.0709 25.2542 44.6239 25.3729C46.2038 25.6896 47.5863 26.7188 48.2973 28.1438C49.6007 30.6771 49.2847 34.6553 47.5073 38.3365C44.5053 44.0761 40.4369 48.9449 35.3218 52.9032C32.8729 55.0011 30.2067 56.8615 27.3628 58.4251L27.1258 58.5043C25.9408 59.1772 24.7558 59.7709 23.4524 60.2459L23.2549 60.3251L22.2279 60.7209C16.6783 62.1459 20.0554 57.3959 20.0554 57.3959C21.2404 56.0501 22.5044 54.823 23.8473 53.6355C24.6373 52.9626 25.4273 52.2501 26.1778 51.498L26.3358 51.3397C27.3233 50.3897 28.6662 49.0834 28.5872 47.223C28.4687 44.7688 25.9013 43.2646 23.4721 43.1855H23.3141C20.9442 43.1855 18.7915 44.4917 17.33 45.6397C15.75 46.8667 14.4466 48.3313 13.3406 49.974C11.8396 52.2303 8.73895 58.0292 11.7606 62.6407C12.9654 64.5605 15.0193 65.5105 17.7645 65.5105Z" fill="#E40000"/>
<mask id="mask0_26_9" style="mask-type:luminance" maskUnits="userSpaceOnUse" x="60" y="0" width="179" height="73">
<path d="M238.682 0H60.6997V72.022H238.682V0Z" fill="white"/>
</mask>
<g mask="url(#mask0_26_9)">
<mask id="mask1_26_9" style="mask-type:luminance" maskUnits="userSpaceOnUse" x="60" y="0" width="179" height="73">
<path d="M238.682 0H60.6997V72.022H238.682V0Z" fill="white"/>
</mask>
<g mask="url(#mask1_26_9)">
<mask id="mask2_26_9" style="mask-type:luminance" maskUnits="userSpaceOnUse" x="61" y="0" width="179" height="72">
<path d="M239.512 0.356247H61.0747V71.4282H239.512V0.356247Z" fill="white"/>
</mask>
<g mask="url(#mask2_26_9)">
<path fill-rule="evenodd" clip-rule="evenodd" d="M129.211 10.1136C130.396 11.3011 130.988 12.8844 130.949 14.4875C130.949 17.9709 128.184 20.6823 124.649 20.6823C121.094 20.6823 118.349 17.9115 118.349 14.4479C118.349 11.0438 121.232 8.25314 124.728 8.25314C126.446 8.25314 128.026 8.92606 129.211 10.1136ZM119.632 62.7595H129.527V23.8094L119.632 25.3927V62.7595ZM112.187 36.5751V57.3563C109.916 59.4345 107.328 60.998 104.425 62.0668C101.542 63.1355 98.5399 63.5907 95.4788 63.472C86.8877 63.472 80.7456 57.1584 80.7456 49.8949C80.9036 42.2355 86.7692 37.3469 96.2292 37.3469H102.134V35.3678C102.134 31.924 100.633 30.3209 97.0192 30.1625C94.0568 30.0438 90.7981 30.9542 87.6777 32.3396L86.1767 33.0521L83.5303 27.2136L84.7153 26.5802C88.9022 24.3636 93.3458 23.1959 98.0659 23.0969C104.919 23.0969 112.246 26.4615 112.246 36.5157L112.187 36.5751ZM102.134 43.9178H98.1054C93.1483 43.9178 91.2919 47.2032 91.2129 50.1126C91.1339 53.6751 92.9508 56.6636 96.9205 56.6636C98.7572 56.723 100.475 56.3074 102.075 55.397V43.9178H102.134ZM213.304 53.2792L216.069 58.9595C216.069 58.9595 212.909 61.2157 208.624 62.522C206.412 63.1949 203.943 63.5511 201.613 63.5511C197.288 63.5511 193.575 62.3636 190.889 60.147C188.637 58.0688 186.919 55.6147 185.754 52.7845C184.589 49.9542 184.055 47.0053 184.194 43.9574C184.273 34.0021 188.795 23.4136 200.467 23.4136C210.915 23.4136 215.674 29.7271 215.872 43.5219V44.4719H194.483C194.286 48.6282 195.076 52.5272 196.853 54.4272C198.038 55.7334 199.895 56.6043 202.6 56.6043C206.491 56.5845 210.046 55.4761 213.285 53.2792H213.304ZM194.779 38.2969H205.503C205.503 35.4073 204.871 30.6771 200.467 30.6771C196.517 30.6771 194.957 34.5959 194.799 38.3365L194.779 38.2969ZM137.525 30.7959V62.7793H147.618V32.6563C148.96 31.3896 151.765 30.2813 154.392 30.1625C156.88 30.0834 158.5 30.5584 158.5 30.5584L161.264 24.4032C160.198 23.849 157.591 23.2157 154.609 23.2157C150.284 23.2157 143.569 24.4823 137.545 30.7563L137.525 30.7959ZM236.905 56.5845C232.758 56.3074 231.909 54.4865 231.909 51.5376V13.0427L221.974 14.7052V50.924C221.974 59.4938 226.695 63.1751 234.575 63.1751C236.313 63.1751 238.406 62.7793 238.406 62.7793V56.6636H236.905V56.5845ZM174.141 13.0823L163.97 14.7052V51.0824C163.97 59.2563 168.769 63.0959 176.886 63.0959C178.861 63.0959 180.678 62.7397 180.678 62.7397V56.7032L179.217 56.6636C174.971 56.5053 174.102 54.2095 174.102 51.5376V30.9938H180.678V23.8094H174.141V13.0823Z" fill="#E40000"/>
</g>
</g>
</g>
<mask id="mask3_26_9" style="mask-type:luminance" maskUnits="userSpaceOnUse" x="60" y="0" width="179" height="73">
<path d="M238.682 0H60.6997V72.022H238.682V0Z" fill="white"/>
</mask>
<g mask="url(#mask3_26_9)">
<mask id="mask4_26_9" style="mask-type:luminance" maskUnits="userSpaceOnUse" x="60" y="0" width="179" height="73">
<path d="M238.682 0H60.6997V72.022H238.682V0Z" fill="white"/>
</mask>
<g mask="url(#mask4_26_9)">
<mask id="mask5_26_9" style="mask-type:luminance" maskUnits="userSpaceOnUse" x="61" y="0" width="179" height="72">
<path d="M239.512 0.356247H61.0747V71.4282H239.512V0.356247Z" fill="white"/>
</mask>
<g mask="url(#mask5_26_9)">
<path fill-rule="evenodd" clip-rule="evenodd" d="M129.211 10.1136C130.396 11.3011 130.988 12.8844 130.949 14.4875C130.949 17.9709 128.184 20.6823 124.649 20.6823C121.094 20.6823 118.349 17.9115 118.349 14.4479C118.349 11.0438 121.232 8.25314 124.728 8.25314C126.446 8.25314 128.026 8.92606 129.211 10.1136ZM119.632 62.7595H129.527V23.8094L119.632 25.3927V62.7595ZM112.187 36.5751V57.3563C109.916 59.4345 107.328 60.998 104.425 62.0668C101.542 63.1355 98.5399 63.5907 95.4788 63.472C86.8877 63.472 80.7456 57.1584 80.7456 49.8949C80.9036 42.2355 86.7692 37.3469 96.2292 37.3469H102.134V35.3678C102.134 31.924 100.633 30.3209 97.0192 30.1625C94.0568 30.0438 90.7981 30.9542 87.6777 32.3396L86.1767 33.0521L83.5303 27.2136L84.7153 26.5802C88.9022 24.3636 93.3458 23.1959 98.0659 23.0969C104.919 23.0969 112.246 26.4615 112.246 36.5157L112.187 36.5751ZM102.134 43.9178H98.1054C93.1483 43.9178 91.2919 47.2032 91.2129 50.1126C91.1339 53.6751 92.9508 56.6636 96.9205 56.6636C98.7572 56.723 100.475 56.3074 102.075 55.397V43.9178H102.134ZM213.304 53.2792L216.069 58.9595C216.069 58.9595 212.909 61.2157 208.624 62.522C206.412 63.1949 203.943 63.5511 201.613 63.5511C197.288 63.5511 193.575 62.3636 190.889 60.147C188.637 58.0688 186.919 55.6147 185.754 52.7845C184.589 49.9542 184.055 47.0053 184.194 43.9574C184.273 34.0021 188.795 23.4136 200.467 23.4136C210.915 23.4136 215.674 29.7271 215.872 43.5219V44.4719H194.483C194.286 48.6282 195.076 52.5272 196.853 54.4272C198.038 55.7334 199.895 56.6043 202.6 56.6043C206.491 56.5845 210.046 55.4761 213.285 53.2792H213.304ZM194.779 38.2969H205.503C205.503 35.4073 204.871 30.6771 200.467 30.6771C196.517 30.6771 194.957 34.5959 194.799 38.3365L194.779 38.2969ZM137.525 30.7959V62.7793H147.618V32.6563C148.96 31.3896 151.765 30.2813 154.392 30.1625C156.88 30.0834 158.5 30.5584 158.5 30.5584L161.264 24.4032C160.198 23.849 157.591 23.2157 154.609 23.2157C150.284 23.2157 143.569 24.4823 137.545 30.7563L137.525 30.7959ZM236.905 56.5845C232.758 56.3074 231.909 54.4865 231.909 51.5376V13.0427L221.974 14.7052V50.924C221.974 59.4938 226.695 63.1751 234.575 63.1751C236.313 63.1751 238.406 62.7793 238.406 62.7793V56.6636H236.905V56.5845ZM174.141 13.0823L163.97 14.7052V51.0824C163.97 59.2563 168.769 63.0959 176.886 63.0959C178.861 63.0959 180.678 62.7397 180.678 62.7397V56.7032L179.217 56.6636C174.971 56.5053 174.102 54.2095 174.102 51.5376V30.9938H180.678V23.8094H174.141V13.0823Z" fill="#E40000"/>
</g>
</g>
</g>
</svg>
