<svg width="83" height="110" viewBox="0 0 83 110" fill="none" xmlns="http://www.w3.org/2000/svg">
<path d="M75.9962 82.3785H6.55782C3.00475 82.3785 0 79.5492 0 75.8207V6.53589C0 3.00475 2.82929 0 6.55782 0H75.9962C79.5492 0 82.554 2.8293 82.554 6.55782V75.9962C82.554 79.5273 79.5492 82.3785 75.9962 82.3785Z" fill="#F16522"/>
<path d="M5.30767 93.8931C4.05752 93.8931 3.00475 94.244 2.30291 94.7704C1.95199 95.1213 1.60107 95.4722 1.42561 95.8232V89.7917H0V105.737H1.25015V103.96C1.60107 104.487 1.77653 104.837 2.30291 105.013C3.18021 105.715 4.07945 106.066 5.30767 106.066C6.90874 106.066 8.13696 105.539 9.0362 104.289C9.9135 103.236 10.4618 101.635 10.4618 99.8587C10.4618 98.0822 9.9135 96.7224 9.21166 95.6477C8.13696 94.5949 6.90874 93.8931 5.30767 93.8931ZM5.30767 104.859C4.05752 104.859 3.00475 104.508 2.30291 103.434C1.60107 102.556 1.25015 101.306 1.25015 99.8807C1.25015 98.2796 1.60107 97.0514 2.30291 96.1521C3.00475 95.2748 4.07945 94.902 5.30767 94.902C6.53589 94.902 7.43512 95.4284 8.13696 96.3276C8.8388 97.3804 9.18972 98.4551 9.18972 99.8807C9.18972 101.306 8.8388 102.535 8.13696 103.434C7.43512 104.508 6.55782 104.859 5.30767 104.859ZM20.0244 104.508V104.333V97.4242C20.0244 96.1741 19.6735 95.2968 18.7742 94.7704C18.0724 94.244 17.1732 94.0686 15.9449 94.0686C14.5193 94.0686 13.4666 94.4195 12.5893 95.1213C11.712 95.8232 11.3391 96.8979 11.3391 97.9506V98.3015H12.5893V97.9506C12.5893 97.0733 12.9402 96.3495 13.4666 95.8232C13.9929 95.2968 14.8922 95.1213 15.9449 95.1213C17.1951 95.1213 17.8969 95.2968 18.2479 95.8232C18.5988 96.3495 18.7742 96.8759 18.7742 97.7752C18.7742 98.6525 18.4233 98.8279 18.0724 98.8279C17.546 99.0034 16.4713 99.1788 14.8922 99.1788C13.642 99.1788 12.7647 99.3543 12.0629 99.8807C11.1856 100.407 10.8127 101.306 10.8127 102.71C10.8127 103.763 11.1637 104.662 11.8655 105.188C12.5673 105.715 13.642 106.066 14.6948 106.066C15.7475 106.066 16.8222 105.715 17.6995 105.188C18.0505 105.013 18.4014 104.662 18.7523 104.311C18.7523 104.837 18.9278 105.188 19.1032 105.364C19.4541 105.539 19.8051 105.715 20.5288 105.715H21.2307V104.662H20.3534C20.1998 104.684 20.1998 104.684 20.0244 104.508ZM12.7647 100.802C13.2911 100.451 14.0149 100.275 15.0676 100.275C16.4933 100.275 17.546 100.275 18.2479 100.1C18.5988 100.1 18.7742 99.9245 18.9497 99.9245V100.977C18.9497 102.03 18.5988 102.929 17.8969 103.631C17.1951 104.333 16.1204 104.684 14.8922 104.684C13.8394 104.684 13.1156 104.508 12.7647 103.982C12.4138 103.631 12.0629 103.105 12.0629 102.381C11.8655 101.855 12.2164 101.153 12.7647 100.802ZM26.3848 93.8931C25.3321 93.8931 24.2574 94.244 23.5555 94.7704C23.2046 94.9459 23.0291 95.2968 22.8537 95.4722V94.0466H21.6035V105.737H22.8537V99.1788C22.8537 97.9287 23.2046 96.8759 23.731 96.1741C24.4328 95.4722 25.1566 94.9239 26.3848 94.9239C27.2621 94.9239 27.9859 95.0994 28.6877 95.8012C29.2141 96.3276 29.565 97.0514 29.565 98.1041V105.715H30.6178V98.1041C30.6178 96.6785 30.2669 95.6258 29.3676 94.9239C28.6877 94.244 27.635 93.8931 26.3848 93.8931ZM40.5752 95.8232C40.3997 95.4722 40.0488 95.1213 39.6979 94.9459C38.8206 94.244 37.9213 94.0686 36.8686 94.0686C35.2675 94.0686 34.0393 94.5949 33.14 95.6696C32.2627 96.7224 31.8899 98.148 31.8899 99.7491C31.8899 101.35 32.2408 102.578 33.14 103.653C34.0173 104.706 35.2675 105.254 36.8686 105.254C37.9213 105.254 38.996 104.903 39.8733 104.377C40.2242 104.026 40.5752 103.85 40.9261 103.5V105.101C40.9261 106.351 40.5752 107.228 40.0488 107.754C39.3469 108.281 38.4477 108.632 37.2195 108.632C36.1667 108.632 35.4429 108.456 34.7411 107.93C34.2147 107.579 33.8638 106.877 33.8638 105.978V105.627H32.6136V105.978C32.6136 107.228 33.14 108.281 33.8638 108.807C34.7411 109.334 35.8158 109.685 37.044 109.685C38.6451 109.685 39.8733 109.334 40.5971 108.434C41.4744 107.557 41.8472 106.482 41.8472 104.881V93.8931H40.5971V95.8232H40.5752ZM33.8419 102.929C33.14 102.052 32.7891 100.977 32.7891 99.7491C32.7891 98.4989 33.14 97.2707 33.8419 96.5689C34.5437 95.6916 35.4429 95.3187 36.6712 95.3187C37.9213 95.3187 38.7986 95.6696 39.5005 96.5689C40.2023 97.4462 40.5532 98.5209 40.5532 99.7491C40.5532 100.999 40.2023 102.052 39.5005 102.929C38.7986 103.807 37.8994 104.179 36.6712 104.179C35.421 103.982 34.5437 103.631 33.8419 102.929ZM43.229 89.9891H44.4791V105.934H43.229V89.9891ZM54.5681 104.508V104.333V97.4242C54.5681 96.1741 54.2172 95.2968 53.3179 94.7704C52.6161 94.244 51.7169 94.0686 50.4887 94.0686C49.063 94.0686 48.0103 94.4195 47.133 95.1213C46.2557 95.8232 45.8828 96.8979 45.8828 97.9506V98.3015H47.133V97.9506C47.133 97.0733 47.4839 96.3495 48.0103 95.8232C48.5367 95.2968 49.4359 95.1213 50.4887 95.1213C51.7388 95.1213 52.4406 95.2968 52.7916 95.8232C53.1425 96.3495 53.3179 96.8759 53.3179 97.7752C53.3179 98.6525 52.967 98.8279 52.6161 98.8279C52.0897 99.0034 51.015 99.1788 49.4359 99.1788C48.1857 99.1788 47.3084 99.3543 46.6066 99.8807C45.7293 100.407 45.3564 101.482 45.3564 102.71C45.3564 103.763 45.7074 104.662 46.4092 105.188C47.111 105.715 48.1857 106.066 49.2385 106.066C50.2913 106.066 51.366 105.715 52.2433 105.188C52.5942 105.013 52.9451 104.662 53.296 104.311C53.296 104.837 53.4715 105.188 53.6469 105.364C53.9979 105.539 54.3488 105.715 55.0725 105.715H55.7744V104.662H54.8971C54.919 104.684 54.7436 104.684 54.5681 104.508ZM47.3084 100.802C47.8348 100.451 48.5586 100.275 49.6113 100.275C51.037 100.275 52.0897 100.275 52.7916 100.1C53.1425 100.1 53.3179 99.9245 53.4934 99.9245V100.977C53.4934 102.03 53.1425 102.929 52.4406 103.631C51.7388 104.333 50.6641 104.684 49.4359 104.684C48.3831 104.684 47.6594 104.508 47.3084 103.982C46.7821 103.807 46.6066 103.456 46.6066 102.732C46.5847 101.855 46.7601 101.153 47.3084 100.802ZM56.3446 89.9891H57.5948V105.934H56.3446V89.9891ZM58.9985 89.9891H60.2486V92.8184H58.9985V89.9891ZM58.9985 94.244H60.2486V105.934H58.9985V94.244ZM66.6091 93.8931C65.5563 93.8931 64.4816 94.244 63.7798 94.7704C63.4288 94.9459 63.2534 95.2968 63.0779 95.4722V94.0466H61.8278V105.737H63.0779V99.1788C63.0779 97.9287 63.4288 96.8759 63.9552 96.1741C64.6571 95.4722 65.3808 94.9239 66.6091 94.9239C67.4864 94.9239 68.2101 95.0994 68.912 95.8012C69.4383 96.3276 69.7893 97.0514 69.7893 98.1041V105.715H71.0394V98.1041C71.0394 96.6785 70.6885 95.6258 69.7893 94.9239C68.912 94.244 67.8592 93.8931 66.6091 93.8931ZM76.8954 98.6744L82.3785 94.244L80.602 94.0686L73.5178 99.9026V89.9891H72.465V105.759H73.5178V101.504L75.9962 99.5517L80.9529 105.759H82.554L76.8954 98.6744Z" fill="black"/>
<path d="M52.7914 78.1236C64.1305 65.008 70.5129 49.7868 73.6931 32.9426C74.044 30.8152 73.3422 28.6877 73.1667 26.3848C72.8158 26.3848 72.4649 26.2093 72.114 26.2093C71.4121 27.0866 70.6883 27.9859 69.9865 28.8632C69.6356 29.2141 69.6356 29.7405 69.4601 30.1133C66.6308 39.5005 62.5514 48.0103 55.9936 55.7963C51.5632 60.9285 48.9094 67.6618 45.9046 73.8687C43.6017 78.2991 43.6017 78.65 38.1186 77.9482C39.7196 74.3951 41.1233 70.864 43.0753 67.6837C48.0321 59.7222 53.5371 52.0897 58.6693 44.1282C60.9722 40.3997 62.5733 36.3422 64.7008 32.6136C66.4773 29.6089 68.9557 27.1305 70.5567 24.1038C72.1578 21.2745 73.386 18.0724 74.4607 15.0676C75.338 12.4138 75.8864 9.5845 76.4127 6.73328C76.7637 6.73328 77.1146 6.90874 77.6629 6.90874C77.1365 9.91349 76.4127 12.9402 76.0618 16.1204C75.5354 19.4761 75.36 23.0291 75.009 26.3848C74.8336 28.1613 74.3072 30.2888 77.312 31.1661C77.8383 31.3416 78.1893 33.8199 78.0138 34.8946C76.0618 42.1543 74.2853 49.5894 71.6314 56.6955C70.0304 60.9505 67.2011 64.8544 64.8982 68.912C64.0209 70.3376 63.1216 71.5658 62.4198 73.1669C59.5247 79.0009 59.3492 79.1764 52.7914 78.1236ZM48.8874 4.23297C50.313 7.41318 48.712 9.01426 47.4618 10.7908C43.2069 16.6468 38.6011 22.3054 35.0699 28.6877C31.8897 34.3463 29.4114 40.3778 27.2839 46.5847C25.3319 52.6161 22.3271 58.0992 18.5986 63.2314C15.5939 67.3109 12.7426 71.5658 9.73788 75.6233C9.03604 76.6761 8.13681 77.5753 7.43497 78.4526C7.08405 78.2771 6.90859 78.2771 6.55767 78.1017C6.55767 76.8515 6.38221 75.6233 6.73313 74.5486C8.3342 70.6446 9.73788 66.5871 11.6899 62.8586C14.6946 57.3755 15.7693 51.6949 14.8701 45.488C13.6199 37.1537 14.6946 29.0167 16.6466 21.0333C17.173 18.5549 17.3485 15.9011 17.6994 12.8744C11.6899 15.0457 9.2115 20.1779 4.60568 24.0819C4.0793 20.7262 3.55292 18.4233 6.38221 16.1204C10.4617 12.7428 13.9928 8.8388 18.0722 5.48312C19.125 4.60582 20.7261 4.43036 23.029 3.53113C22.3271 6.18496 21.9762 7.78604 21.6034 9.38711C20.1778 16.1204 18.7741 23.0291 17.6994 29.7624C17.173 32.9426 17.3485 36.1448 17.5239 39.325C17.6994 43.9308 18.2258 48.5366 18.7741 53.4934C21.9543 53.1425 23.3799 51.015 24.2572 48.3612C26.7356 42.1543 29.0385 35.7719 31.6923 29.587C35.048 21.8009 38.6011 14.1684 45.3344 8.50981C46.76 7.78604 47.4837 6.18496 48.8874 4.23297ZM15.0675 77.7727C15.9448 75.9962 16.6686 74.417 17.5459 72.8159C21.4498 66.7845 26.2311 61.3014 29.4114 54.919C34.5436 45.0055 41.6278 36.6712 48.361 27.9859C49.2383 26.7357 50.1376 25.332 50.313 23.9064C51.1903 18.9497 53.6687 14.8702 57.2218 11.1417C58.9983 9.21165 60.5775 7.25966 63.0778 5.48312C62.2005 7.0842 61.4767 9.03619 60.2485 10.089C55.9936 13.8175 54.0416 18.4233 52.6379 23.731C51.3877 28.1613 48.7339 32.0653 46.7819 36.3202C44.6545 40.7506 42.527 45.181 40.575 49.6113C35.9692 59.5248 30.1132 68.561 21.8008 75.8207C20.0242 77.5753 18.2477 79.0009 15.0675 77.7727ZM35.4209 69.6138C38.0747 65.5343 42.1541 61.6523 43.5798 57.0245C45.7072 50.1158 49.4357 43.7334 50.8394 37.1756C52.7914 27.4376 58.0991 20.3534 63.9551 13.0718C65.5561 11.1198 66.7844 8.81686 68.0345 6.33849C68.9118 4.3865 70.3374 4.03558 71.9385 4.73742C72.2894 4.91288 72.114 7.21579 71.5876 7.91763C68.9118 12.0409 65.7316 15.923 63.0778 20.1779C60.5994 23.9064 58.6474 27.964 56.5199 32.0434C54.5679 35.5965 52.616 38.9521 51.0368 42.6807C49.0848 46.7601 47.1328 50.8396 45.9046 55.2699C44.2816 61.8278 40.3995 66.2581 35.4209 69.6138ZM34.8945 4.78128C30.9905 9.56257 28.863 14.5193 27.8103 20.1998C26.5601 26.4067 24.0817 32.2408 22.3271 38.2722C21.9762 38.2722 21.8008 38.0968 21.4498 38.0968C21.8008 36.1448 22.1517 34.3682 22.5026 32.4382C24.2791 25.0031 25.8583 17.3705 27.8103 10.1109C29.0604 5.1322 30.2887 4.40843 34.8945 4.78128ZM77.7725 57.2219C79.5491 69.2629 76.3469 77.9482 69.811 78.1236C72.4649 71.0394 75.1187 64.1307 77.7725 57.2219ZM11.5144 23.3801C10.988 24.2574 10.4617 25.332 9.73788 26.2093C6.55767 30.2888 5.8339 34.8946 5.8339 40.0268C5.8339 43.7554 5.65844 47.6374 5.48298 51.3659C5.48298 51.8923 5.13206 52.4187 4.60568 52.967C4.9566 42.5052 1.77638 31.539 10.6371 23.0291C10.988 23.2046 11.1635 23.2046 11.5144 23.3801ZM54.9189 4.95674C51.9141 12.5673 50.313 20.9017 44.1061 26.5603C47.2864 19.4761 50.664 11.8655 54.0196 4.40843C54.217 4.60582 54.5679 4.78128 54.9189 4.95674ZM4.78114 10.6153C4.25476 6.0095 5.13206 4.95674 8.68512 4.75935C7.43497 6.53588 6.20675 8.31242 4.78114 10.6153Z" fill="black"/>
</svg>
