<svg width="42" height="40" viewBox="0 0 42 40" fill="none" xmlns="http://www.w3.org/2000/svg">
<g clip-path="url(#clip0_27_135)">
<path fill-rule="evenodd" clip-rule="evenodd" d="M20.7702 12.1084C21.3586 12.2011 21.4776 12.079 21.5556 11.5079C21.6832 10.6367 21.9874 9.16778 22.6983 7.66205C23.468 6.03836 24.6939 4.25425 26.4084 3.05965C27.8524 2.06652 30.2192 0.966543 32.0516 0.567554C33.5505 0.236625 34.955 0.173458 36.1599 0.2879C38.6363 0.516279 40.0062 1.24047 40.6937 2.17776C40.9488 2.52791 41.0883 2.95988 41.094 3.23953C41.1136 3.70573 40.9153 4.31412 40.2624 4.91139C39.6271 5.48672 38.2719 6.21462 36.4238 6.85201C34.5055 7.50713 31.884 8.19893 29.271 8.81564C27.0829 9.33265 25.838 9.77258 24.7985 10.1341C23.0695 10.7353 22.5484 12.5005 23.6258 13.0396C25.183 13.8186 26.157 14.6331 26.9871 15.3256C28.2321 16.3732 29.6779 17.6057 31.4731 19.8287C33.0995 21.8672 35.76 25.7578 36.7176 29.5342C37.7775 33.6802 37.1152 37.6121 34.829 38.71C32.5873 39.7883 29.6001 38.2324 27.5032 36.0013C25.5082 33.8838 24.1157 31.3897 22.8065 27.5425C21.671 24.2358 21.2107 19.4407 21.2126 16.9323C21.2126 16.0967 21.1995 15.9184 21.2324 15.1638C21.3085 14.5062 19.5806 13.9623 17.7234 15.1884C15.61 16.5835 13.5395 19.112 12.3171 20.5804C11.7854 21.2214 11.0645 22.1633 10.3008 23.1511C9.29386 24.447 8.18237 25.7964 7.16913 26.5508C5.64425 27.6913 3.19431 28.1628 1.47825 26.9069C0.524344 26.2072 0.0165701 24.8862 0.000625036 23.5431C-0.0135939 22.5977 0.214896 21.7423 0.674999 20.8985C1.24984 19.8626 2.19627 18.7509 3.69666 17.4779C5.24817 16.1696 7.7249 14.6899 10.2069 13.6669C13.9928 12.1032 18.069 11.6112 20.7702 12.1084Z" fill="#19AAF8"/>
</g>
<defs>
<clipPath id="clip0_27_135">
<rect width="42" height="40" fill="white"/>
</clipPath>
</defs>
</svg>
