<svg width="153" height="74" viewBox="0 0 153 74" fill="none" xmlns="http://www.w3.org/2000/svg">
<path d="M99.5274 73.6604C99.4713 73.5104 99.7146 72.798 99.8269 72.5918C100.819 70.7546 103.739 60.8375 104.338 57.3693C104.581 55.9258 105.068 54.3698 105.255 54.3698C105.33 54.3698 105.741 54.0323 106.172 53.6199C106.602 53.2075 107.482 52.4388 108.118 51.9139C108.755 51.389 109.616 50.6766 110.027 50.3204C111.113 49.4206 111.993 48.8019 112.685 48.427C113.022 48.2583 113.284 48.0521 113.284 47.9771C113.284 47.8271 116.878 45.3712 117.102 45.3712C117.177 45.3712 117.495 45.165 117.795 44.9213C119.124 43.7965 127.209 39.7284 128.669 39.4472C129.006 39.3722 129.455 39.2223 129.661 39.091C130.241 38.7161 134.321 37.5913 136.399 37.2163C139.468 36.6727 143.829 36.8414 144.634 37.535C144.728 37.6288 144.934 37.685 145.083 37.685C145.402 37.685 147.161 38.5474 147.554 38.9036C147.704 39.0535 148.246 39.5222 148.752 39.9721C151.41 42.2968 152.589 46.6085 152.065 52.1201C151.84 54.501 151.241 58.4004 150.904 59.6564C150.623 60.6875 150.193 60.5563 149.426 59.1877C147.367 55.5696 143.773 53.4137 139.787 53.4137C138.233 53.4137 134.808 53.9199 132.674 54.4448C122.511 57.0131 111.974 62.8059 103.233 70.6421C102.073 71.6919 99.6772 73.6791 99.5836 73.6791C99.49 73.6791 101.287 71.9731 101.287 72.1231C101.287 72.2731 101.118 72.573 100.445 73.098C100.033 73.4729 99.6397 73.9791 99.5274 73.6604ZM4.67223 55.6821C3.23106 55.2321 1.90219 53.4324 1.30326 51.0891C1.0038 49.9268 0.947647 48.6895 0.891498 40.7033C0.854065 35.7166 0.872781 31.4423 0.910214 31.2173C1.05995 30.6362 1.93962 29.7176 2.80058 29.2676C3.53052 28.8927 3.79255 28.874 12.5893 28.874H21.6107V28.2928C21.6107 27.2805 20.731 25.9494 19.7577 25.462C18.9342 25.0496 18.7096 25.0308 13.2818 25.0121C10.1936 24.9933 7.51714 24.9746 7.32997 24.9746C6.74976 24.9371 6.89949 23.6248 7.53585 23.0062C8.30323 22.2563 9.03317 22.1625 13.5813 22.1438C19.4208 22.1251 21.3861 22.4625 22.9021 23.7748C24.0251 24.7309 24.5866 26.0244 24.5866 27.6179V28.8927H28.124L28.2363 27.8054C28.517 25.0871 29.4342 23.6623 31.4181 22.8749L32.5411 22.425H49.7041L50.1533 22.9499C50.4715 23.3061 50.6025 23.6998 50.6025 24.2247C50.6025 24.8434 50.5276 24.9933 50.1159 25.1433C49.8351 25.2558 46.3164 25.3308 41.5437 25.3308C37.0892 25.3308 33.14 25.4058 32.747 25.4995C31.5117 25.7995 30.7443 26.8305 30.7443 28.2178V28.874L48.2442 28.9864L48.9929 29.4739C50.041 30.1675 50.3592 30.5612 50.771 31.761C51.1266 32.7546 51.1453 33.3357 51.1453 41.9781C51.1453 52.1389 51.2014 51.7265 49.9474 51.4827C49.2549 51.3515 48.4127 50.5079 48.2629 49.8143C48.2068 49.5893 48.1506 47.8833 48.1132 46.0274C48.0571 42.7279 48.0571 42.6342 47.5517 41.8843C46.0731 39.5972 44.6319 39.8034 43.3405 42.4842C42.9849 43.2341 42.5731 43.8902 42.4234 43.9465C42.0678 44.0777 41.4127 43.4216 41.4127 42.9154C41.4127 42.4655 40.7576 41.1344 40.3272 40.6658C39.4849 39.7847 38.4929 39.7659 37.4822 40.6095C36.6026 41.3594 36.3031 42.0905 36.2844 43.6653C36.2657 44.7714 36.3593 45.2213 36.6587 45.7274C37.1453 46.5711 38.3806 47.2647 39.4288 47.2647C40.5143 47.2834 40.7576 47.6396 40.4582 48.8582C40.1213 50.2454 39.8405 50.4704 38.5117 50.3579C36.1159 50.1705 34.3192 48.4832 33.5705 45.6712C33.2336 44.3964 33.402 41.7718 33.9261 40.4033C34.4876 38.9223 35.9849 37.4226 37.1828 37.1226C39.2603 36.5977 40.7951 36.9914 41.9929 38.3412L42.6293 39.0535L43.1159 38.1162C43.5277 37.3288 43.7336 37.1413 44.4261 36.9351C45.4742 36.6164 46.2977 36.8414 47.3084 37.7225L48.0571 38.3786L48.1132 36.279C48.1881 33.6357 48.0571 32.7171 47.4956 32.0609L47.0651 31.5548L38.9796 31.4985L30.894 31.4423L31.0438 31.9672C31.1186 32.2484 31.2309 36.7289 31.2497 41.9031L31.3058 51.314L30.8379 51.4265C29.9582 51.6515 28.8352 50.9953 28.4422 50.0017C28.3299 49.7205 28.2363 46.3461 28.1989 41.3032C28.1614 35.4541 28.0678 32.9233 27.9181 32.5296C27.4689 31.461 27.3566 31.4423 19.1026 31.4423H11.5599L11.5973 38.3412C11.616 42.128 11.6909 45.9149 11.7471 46.7585C11.8594 48.2208 11.8781 48.2958 12.3834 48.4645C12.9075 48.652 15.3781 48.2395 15.5839 47.9396C15.6401 47.8646 15.9396 47.6771 16.2765 47.5084C17.5117 46.871 19.2337 45.2213 19.7764 44.134C20.2256 43.2341 20.3005 42.9341 20.1882 42.203C19.9262 40.2346 18.8406 39.5972 16.3513 39.9346C15.9583 39.9909 15.8647 39.8784 15.6401 39.0535C15.2658 37.6475 15.3968 37.3476 16.5385 37.0851C17.0813 36.9539 18.0545 36.8976 18.7845 36.9539C19.9262 37.0289 20.1882 37.1226 21.0866 37.8162C21.6481 38.2287 22.3032 38.9036 22.5465 39.2972C22.9395 39.9346 22.9957 40.2346 22.9957 42.1655C22.9957 44.1715 22.9582 44.3964 22.4529 45.4462C21.5919 47.1897 19.5331 49.1206 17.4182 50.133C15.7711 50.9203 15.1347 51.1078 12.7016 51.539C10.3808 51.9327 9.81927 51.9327 9.27649 51.464L8.77114 51.0328L8.67756 41.8843C8.60269 35.2104 8.52783 32.6233 8.35938 32.3234C8.00376 31.686 7.21767 31.4798 5.40217 31.536L3.7364 31.5923L3.68025 39.466C3.62411 48.8582 3.75512 50.8454 4.55993 52.0077C5.25244 53.0013 5.85137 53.245 7.76045 53.245C9.50108 53.245 9.78183 53.4512 9.38879 54.4073C8.90216 55.5321 8.47168 55.7758 6.76848 55.8133C5.92623 55.832 4.97169 55.7758 4.67223 55.6821ZM106.134 41.3969C106.078 40.9657 105.985 39.8784 105.928 38.9973C105.76 36.5789 105.311 33.6169 104.618 30.1112C104.263 28.3678 104.019 26.7555 104.076 26.5306C104.244 25.8744 108.362 21.9376 111.001 19.9317C113.771 17.8133 115.455 16.7447 117.963 15.4886C120.471 14.2326 123.185 13.2953 125.487 12.8641C127.939 12.3954 131.739 12.3766 133.348 12.8266C136.137 13.5952 138.514 15.1137 140.947 17.7008C142.463 19.313 144.578 22.0501 144.578 22.425C144.578 22.5375 144.821 22.9124 145.102 23.2311C145.645 23.831 148.621 29.8675 148.733 30.5237C148.845 31.2173 148.19 30.3925 147.273 29.3614C146.319 28.2553 144.672 26.9805 143.324 26.3056C139.955 24.5996 135.089 24.7309 129.68 26.6806C128.557 27.093 127.452 27.4679 127.247 27.5429C127.041 27.6179 126.835 27.7116 126.779 27.7679C126.722 27.8241 126.03 28.1991 125.225 28.5927C120.789 30.7299 114.145 35.3791 108.961 39.9534C107.557 41.1907 106.359 42.2218 106.303 42.2218C106.247 42.2218 106.19 41.8281 106.134 41.3969ZM99.752 14.9825C99.3403 13.6514 97.1504 9.54587 95.2601 6.49012C94.6424 5.49653 94.0061 4.42795 93.8189 4.10925C93.6317 3.79056 93.3884 3.43437 93.22 3.32189C93.0515 3.2094 92.7708 2.75948 92.5462 2.34704C92.1718 1.63466 92.1718 1.57842 92.49 1.27847C92.6959 1.07225 93.6692 0.809794 95.1478 0.547337C98.0675 0.0224226 105.011 -0.165047 108.062 0.172398C112.648 0.697312 117.177 1.70965 120.097 2.90945C120.602 3.11567 120.49 3.54685 119.91 3.67808C118.338 4.03427 115.904 4.80289 114.482 5.38405C113.584 5.74024 112.592 6.13392 112.292 6.26515C111.132 6.71508 106.827 9.41464 105.928 10.2582C105.723 10.4457 105.03 11.0456 104.412 11.5893C103.795 12.1329 102.728 13.2015 102.073 13.9701C101.137 15.0762 100.781 15.3762 100.37 15.3762C100.033 15.3762 99.8269 15.2637 99.752 14.9825Z" fill="#6AC537"/>
<path d="M99.3403 73.9228C99.3964 73.7728 99.5087 73.4916 99.5836 73.3229C99.7146 72.9667 99.9392 72.8917 100.108 73.1542C100.164 73.2479 99.9954 73.5104 99.7146 73.7541C99.4339 73.9978 99.2841 74.0728 99.3403 73.9228Z" fill="#6AC537"/>
<path d="M58.7439 51.7452C58.5193 51.6515 58.276 51.464 58.1824 51.3328C58.0888 51.2015 58.0514 47.2084 58.0888 42.4467C58.1449 33.3919 58.0888 32.6233 57.3401 31.9297C56.9845 31.611 56.5915 31.5735 53.784 31.5173C51.276 31.4798 50.6209 31.4048 50.6209 31.1986C50.6209 30.5424 49.1236 29.3051 48.0006 29.0239C47.7386 28.9677 52.7172 28.8927 59.0621 28.8739C68.1021 28.8552 70.6101 28.7989 70.685 28.6115C70.8909 28.0491 70.4043 26.7368 69.7492 26.0431C68.8508 25.1058 68.4952 25.0683 61.5514 25.0308L56.161 25.0121L56.1049 24.5621C55.9738 23.681 56.2546 22.9499 56.8161 22.6125C57.284 22.3313 58.0514 22.275 61.907 22.1813C68.3267 22.0313 70.4043 22.3688 72.0513 23.831C73.1743 24.8246 73.4363 25.3495 73.7171 27.3179L73.9604 28.9489H96.8881L96.7758 29.4176C96.4015 30.9173 95.5592 31.3485 92.6956 31.4423C90.5993 31.5173 90.487 31.536 90.5993 31.8922C90.6555 32.0984 90.7678 32.6421 90.8427 33.1107L90.9737 33.9731L92.1154 34.2918C93.8935 34.7792 94.9229 35.4729 95.7464 36.7664C96.8694 38.5099 97.1314 40.5533 96.4015 41.9593C96.0833 42.5592 95.3159 43.1591 94.4362 43.459C93.5378 43.7777 93.3694 43.534 93.6501 42.353C93.9496 41.0407 93.9309 39.9534 93.5566 38.8286C93.1822 37.6662 92.471 36.9351 91.5539 36.8039L90.8614 36.6914V51.7827L90.2625 51.6702C89.4576 51.5202 88.84 51.0703 88.4657 50.4329C88.1849 49.9455 88.0539 49.908 86.6315 49.7955C84.6849 49.6455 81.6154 49.0269 80.3053 48.5395C77.4417 47.4521 75.6636 44.2652 75.9069 40.7032C76.0192 39.1098 76.6556 37.8537 78.0219 36.5602C78.808 35.829 79.2759 35.5478 80.4737 35.1729C81.84 34.7417 84.3293 34.2918 86.9684 34.0106C88.1288 33.8794 88.1288 33.8606 87.8667 32.7358C87.5673 31.4235 88.4095 31.4985 73.8481 31.4985C61.3642 31.4985 60.6904 31.5173 60.8401 31.8172C60.9337 32.0047 61.0273 35.829 61.046 40.3283C61.1022 48.352 61.1022 48.5207 61.4765 48.6332C61.8882 48.7644 63.423 48.4457 64.4524 48.0145C66.193 47.2834 68.308 45.4837 69.0005 44.1339C69.5246 43.1029 69.4123 41.2469 68.7759 40.5533C68.1396 39.8784 67.054 39.6159 66.0059 39.8784C65.538 39.9909 65.1449 40.0658 65.1075 40.0284C64.9765 39.8971 64.4898 37.5725 64.5834 37.4225C64.7519 37.1413 66.8294 36.8414 67.9898 36.9351C69.2625 37.0288 70.0674 37.46 71.1716 38.5848C72.5192 39.9721 72.7251 43.0841 71.6395 45.315C70.4417 47.7708 67.915 49.8143 64.8455 50.8078C62.7492 51.539 59.4177 52.0264 58.7439 51.7452Z" fill="#717476"/>
<path d="M88.017 41.7718L88.0544 36.7477H86.9502C85.6774 36.7477 82.9074 37.1976 81.6721 37.5913C80.6427 37.9287 79.3138 39.2035 79.0518 40.1221C78.8085 40.9657 78.8272 42.0905 79.0705 43.0279C79.3887 44.1902 80.9235 45.615 82.2898 46.0086C83.5812 46.3836 86.5571 46.8522 87.3619 46.796L87.9234 46.7585L88.017 41.7718Z" fill="white"/>
<path d="M106.022 41.9031C106.022 41.6406 106.06 41.4344 106.097 41.4344C106.135 41.4344 106.21 41.6406 106.266 41.9031C106.322 42.1655 106.284 42.3717 106.191 42.3717C106.097 42.3717 106.022 42.1655 106.022 41.9031Z" fill="#717476"/>
<path d="M148.228 30.1112C147.61 29.1364 147.573 28.9114 148.041 29.0614C148.172 29.0989 149.051 31.1236 148.976 31.1798C148.939 31.1985 148.621 30.7299 148.228 30.1112Z" fill="#6AC537"/>
<path d="M7.06819 25.0121C7.12434 24.9558 7.29279 24.9371 7.42381 24.9933C7.57354 25.0496 7.53611 25.1058 7.31151 25.1058C7.10563 25.1246 6.99333 25.0683 7.06819 25.0121Z" fill="#717476"/>
</svg>
